<mxfile host="65bd71144e">
    <diagram id="jAsne-5pMKyl2BbTXDvC" name="Page-1">
        <mxGraphModel dx="1697" dy="389" grid="1" gridSize="10" guides="1" tooltips="1" connect="1" arrows="1" fold="1" page="1" pageScale="1" pageWidth="850" pageHeight="1100" background="none" math="0" shadow="0">
            <root>
                <mxCell id="0"/>
                <mxCell id="1" parent="0"/>
                <mxCell id="3" style="edgeStyle=none;html=1;exitX=1;exitY=0.25;exitDx=0;exitDy=0;" parent="1" edge="1">
                    <mxGeometry relative="1" as="geometry">
                        <mxPoint x="130" y="159.5" as="targetPoint"/>
                        <mxPoint x="60" y="159.5" as="sourcePoint"/>
                    </mxGeometry>
                </mxCell>
                <mxCell id="2" value="&lt;b&gt;Transform&lt;br&gt;&lt;br&gt;Then we will transform the data&lt;/b&gt;" style="rounded=1;whiteSpace=wrap;html=1;" parent="1" vertex="1">
                    <mxGeometry x="-60" y="130" width="120" height="100" as="geometry"/>
                </mxCell>
                <mxCell id="7" value="&lt;b&gt;Extract&lt;br&gt;&lt;br&gt;We will extract the data from that source&lt;/b&gt;" style="rounded=1;whiteSpace=wrap;html=1;" parent="1" vertex="1">
                    <mxGeometry x="-240" y="130" width="120" height="90" as="geometry"/>
                </mxCell>
                <mxCell id="8" style="edgeStyle=none;html=1;exitX=1;exitY=0.25;exitDx=0;exitDy=0;" parent="1" edge="1">
                    <mxGeometry relative="1" as="geometry">
                        <mxPoint x="-250" y="160" as="targetPoint"/>
                        <mxPoint x="-330" y="160" as="sourcePoint"/>
                    </mxGeometry>
                </mxCell>
                <mxCell id="9" value="&lt;b&gt;Source/API&lt;br&gt;&lt;br&gt;&lt;br&gt;This is from where the data will be coming&lt;/b&gt;" style="rounded=1;whiteSpace=wrap;html=1;" parent="1" vertex="1">
                    <mxGeometry x="-450" y="130" width="120" height="110" as="geometry"/>
                </mxCell>
                <mxCell id="10" style="edgeStyle=none;html=1;" parent="1" edge="1">
                    <mxGeometry relative="1" as="geometry">
                        <mxPoint x="-70" y="159.5" as="targetPoint"/>
                        <mxPoint x="-120" y="159.5" as="sourcePoint"/>
                        <Array as="points">
                            <mxPoint x="-100" y="159.5"/>
                        </Array>
                    </mxGeometry>
                </mxCell>
                <mxCell id="11" value="&lt;b&gt;Load&lt;br&gt;&lt;br&gt;And in the last we will load it into our database&lt;/b&gt;" style="rounded=1;whiteSpace=wrap;html=1;" parent="1" vertex="1">
                    <mxGeometry x="140" y="130" width="120" height="100" as="geometry"/>
                </mxCell>
                <mxCell id="15" value="&lt;font style=&quot;font-size: 18px;&quot;&gt;This is the blueprint of the project, basically this tells that what are we going todo in this project = ETL&lt;/font&gt;" style="text;strokeColor=none;align=center;fillColor=none;html=1;verticalAlign=middle;whiteSpace=wrap;rounded=0;" parent="1" vertex="1">
                    <mxGeometry x="-430" y="20" width="630" height="70" as="geometry"/>
                </mxCell>
                <mxCell id="16" value="&lt;b&gt;Analysis&lt;br&gt;&lt;br&gt;Then in the last we will do the analysis of our final data&lt;/b&gt;" style="rounded=1;whiteSpace=wrap;html=1;" parent="1" vertex="1">
                    <mxGeometry x="330" y="130" width="120" height="100" as="geometry"/>
                </mxCell>
                <mxCell id="17" style="edgeStyle=none;html=1;exitX=1;exitY=0.25;exitDx=0;exitDy=0;" parent="1" edge="1">
                    <mxGeometry relative="1" as="geometry">
                        <mxPoint x="320" y="159.5" as="targetPoint"/>
                        <mxPoint x="250" y="159.5" as="sourcePoint"/>
                    </mxGeometry>
                </mxCell>
                <mxCell id="18" value="&lt;b&gt;Source/CSV&lt;br&gt;&lt;br&gt;&lt;br&gt;This is the csv file source from where the data will be coming&lt;/b&gt;" style="rounded=1;whiteSpace=wrap;html=1;" vertex="1" parent="1">
                    <mxGeometry x="-450" y="260" width="120" height="110" as="geometry"/>
                </mxCell>
                <mxCell id="19" style="edgeStyle=none;html=1;exitX=1;exitY=0.25;exitDx=0;exitDy=0;" edge="1" parent="1">
                    <mxGeometry relative="1" as="geometry">
                        <mxPoint y="240" as="targetPoint"/>
                        <mxPoint x="-330" y="314.5" as="sourcePoint"/>
                        <Array as="points">
                            <mxPoint y="320"/>
                        </Array>
                    </mxGeometry>
                </mxCell>
            </root>
        </mxGraphModel>
    </diagram>
</mxfile>